<?xml version="1.0" standalone="no"?>
<!DOCTYPE svg PUBLIC "-//W3C//DTD SVG 20010904//EN"
 "http://www.w3.org/TR/2001/REC-SVG-20010904/DTD/svg10.dtd">
<svg version="1.0" xmlns="http://www.w3.org/2000/svg"
 width="616.000000pt" height="616.000000pt" viewBox="0 0 616.000000 616.000000"
 preserveAspectRatio="xMidYMid meet">
<metadata>
Created by potrace 1.14, written by Peter Selinger 2001-2017
</metadata>
<g transform="translate(0.000000,616.000000) scale(0.100000,-0.100000)"
fill="#000000" stroke="none">
<path d="M3039 5785 c-2 -2 -38 -6 -79 -10 -115 -9 -135 -12 -285 -38 -420
-75 -760 -205 -1110 -425 -27 -18 -59 -39 -70 -47 -234 -180 -271 -212 -413
-355 -386 -388 -636 -871 -732 -1410 -11 -64 -22 -136 -25 -160 -2 -25 -8 -70
-12 -100 -9 -66 -9 -524 0 -595 3 -27 8 -72 11 -100 5 -45 36 -213 51 -273 3
-12 7 -30 9 -40 75 -325 250 -680 470 -952 130 -160 386 -398 536 -497 30 -20
57 -40 60 -43 3 -4 12 -10 20 -13 8 -4 29 -16 45 -27 17 -11 48 -29 70 -41 22
-12 43 -27 47 -33 4 -6 8 -7 8 -2 0 5 8 2 18 -6 19 -17 150 -81 171 -85 8 -1
17 -5 20 -10 3 -4 15 -10 26 -11 11 -2 25 -8 31 -13 6 -5 19 -10 30 -12 10 -2
29 -8 40 -15 12 -6 24 -8 28 -5 3 3 6 2 6 -4 0 -5 6 -10 13 -11 24 -2 47 -8
53 -15 4 -4 18 -7 31 -7 13 0 23 -5 23 -11 0 -6 6 -9 14 -6 7 3 24 0 37 -7 29
-15 33 -16 60 -16 11 0 17 -4 14 -10 -4 -6 2 -7 17 -1 16 6 29 5 42 -4 10 -8
25 -11 34 -8 8 4 13 2 9 -3 -3 -5 10 -11 29 -12 62 -4 74 -6 74 -15 0 -4 4 -5
10 -2 5 3 19 1 31 -6 15 -8 19 -8 15 0 -11 17 5 13 27 -7 11 -9 17 -11 13 -4
-10 16 0 15 30 -4 23 -16 24 -16 17 2 -5 15 -4 17 8 8 21 -16 51 -26 44 -14
-3 6 -1 10 4 10 6 0 11 -4 11 -8 0 -5 14 -7 30 -6 17 1 30 -3 30 -8 0 -6 6 -5
15 2 8 7 15 9 15 4 0 -5 11 -10 25 -10 14 -1 22 2 19 7 -3 5 5 5 18 0 13 -4
29 -6 37 -3 8 2 11 0 8 -5 -3 -5 0 -10 8 -10 8 0 12 4 9 9 -3 4 2 8 11 8 10 0
14 -5 9 -12 -6 -10 -4 -11 7 0 14 13 33 17 25 4 -2 -4 22 -7 55 -5 40 2 58 -1
53 -8 -3 -6 3 -5 15 3 16 10 23 10 33 0 9 -9 15 -9 25 0 19 15 124 19 142 4
12 -8 13 -8 7 2 -4 6 -3 12 1 12 5 0 15 -6 22 -12 9 -8 11 -8 8 -2 -8 14 20
27 36 17 16 -10 47 -11 41 -2 -2 4 5 7 16 6 11 -1 20 -5 20 -10 0 -4 5 -5 10
-2 6 4 8 10 6 14 -3 4 6 7 19 7 13 0 21 -4 19 -8 -3 -5 -10 -5 -16 -2 -7 5 -8
2 -3 -5 5 -9 14 -6 33 11 14 13 22 18 19 12 -4 -7 0 -15 9 -18 8 -3 13 -2 10
3 -3 5 1 12 10 15 12 5 15 2 10 -11 -6 -17 -5 -17 8 0 13 17 62 34 52 18 -3
-4 1 -8 9 -8 8 0 12 4 9 9 -3 4 0 8 5 8 6 0 12 0 14 0 1 1 19 5 39 9 21 5 36
5 33 1 -2 -4 8 -5 23 -3 15 2 32 5 39 5 7 1 10 5 7 10 -3 5 -10 5 -16 2 -7 -4
-8 -2 -4 4 5 9 13 9 27 2 13 -8 19 -7 19 0 0 7 6 8 18 1 12 -6 23 -6 33 1 11
8 11 9 -3 4 -10 -3 -20 -1 -22 3 -3 4 7 8 22 7 15 -1 33 5 41 12 11 10 16 10
29 0 9 -8 13 -8 9 -2 -9 16 28 25 44 10 9 -8 10 -8 6 0 -4 7 0 17 8 24 13 11
14 10 9 -4 -3 -9 -1 -16 5 -16 6 0 11 7 11 15 0 12 5 13 26 4 25 -9 26 -8 13
7 -13 16 -12 16 7 6 16 -8 24 -8 32 0 7 7 12 9 12 5 0 -4 10 -2 23 5 12 7 25
12 29 13 3 0 10 4 15 9 5 5 3 6 -4 2 -7 -4 -13 -3 -13 2 0 11 30 20 48 15 6
-3 9 -10 6 -15 -4 -7 -2 -8 5 -4 9 6 9 12 -1 24 -7 10 -8 14 -4 10 5 -4 15 -3
23 3 7 6 13 8 13 3 0 -5 5 -2 11 6 8 12 9 9 5 -10 -5 -23 -4 -23 6 3 7 15 15
27 20 27 4 0 7 -3 5 -8 -3 -11 6 -14 26 -7 9 4 17 12 17 17 0 6 -6 5 -15 -2
-10 -9 -15 -9 -15 -1 0 10 14 15 24 9 2 -2 13 6 25 16 12 11 21 15 21 10 0 -5
5 -2 11 6 10 13 10 13 6 -1 -3 -9 1 -16 9 -16 7 0 11 4 8 9 -3 4 0 8 6 8 6 0
9 4 6 8 -3 5 11 15 30 24 28 13 32 13 23 2 -7 -8 -9 -17 -5 -21 3 -3 6 -1 6 6
0 7 6 11 14 8 9 -4 12 0 9 13 -3 10 1 21 8 25 8 5 10 4 5 -3 -4 -7 -3 -12 1
-12 5 0 14 9 21 20 11 17 16 19 35 9 21 -12 21 -11 7 6 -14 17 -14 17 7 7 27
-15 45 -15 20 -1 -9 6 -15 15 -11 20 3 6 12 5 22 -3 13 -11 14 -11 8 1 -7 10
-3 12 15 6 24 -7 24 -7 4 10 -11 9 -14 14 -7 10 6 -3 15 1 18 10 4 10 13 13
25 10 11 -4 31 2 48 14 15 11 32 17 36 13 5 -4 5 -1 1 6 -6 9 -14 8 -36 -8
-21 -15 -31 -17 -36 -9 -4 7 -3 9 3 6 5 -3 32 12 60 33 28 21 64 40 80 42 21
2 27 8 25 22 -3 17 -2 18 12 7 14 -12 16 -12 10 2 -8 22 5 41 20 28 8 -7 17
-6 26 1 12 8 12 9 -2 4 -10 -3 -18 0 -18 5 0 7 11 9 25 7 14 -3 23 -1 22 6 -1
5 4 10 11 11 12 0 15 16 5 25 -4 3 -3 -1 2 -9 5 -9 4 -12 -3 -7 -6 3 -13 2
-17 -4 -3 -5 -11 -10 -18 -10 -6 0 0 8 13 17 14 10 29 17 34 15 5 -2 6 4 2 13
-3 9 -2 13 4 10 6 -3 10 -1 10 5 0 7 7 7 23 -1 20 -11 21 -11 8 5 -8 9 -12 18
-10 19 2 1 14 11 27 22 20 16 22 16 16 2 -3 -9 -10 -17 -15 -17 -5 0 -9 -5 -9
-11 0 -8 4 -9 13 0 8 6 16 9 18 6 3 -2 6 8 7 22 3 39 50 85 73 73 14 -8 17 -6
14 15 -1 14 3 29 9 33 7 4 22 21 35 37 12 17 28 30 34 30 7 0 12 6 12 13 0 13
23 32 40 32 6 0 3 -5 -5 -10 -8 -5 -10 -10 -4 -10 20 0 37 27 23 36 -8 5 -9 3
-4 -6 5 -9 4 -11 -4 -6 -21 13 23 60 48 51 12 -5 12 -3 0 12 -12 15 -12 16 5
10 16 -6 17 -5 7 7 -10 12 -8 17 11 26 21 10 21 10 5 -3 -15 -13 -15 -15 -2
-20 8 -4 14 -1 12 6 -1 7 3 11 9 10 7 -1 11 5 10 15 0 9 5 16 12 14 8 -1 11 2
7 9 -5 8 -10 8 -18 0 -6 -6 -16 -11 -21 -11 -6 0 -2 7 9 16 11 8 20 18 20 23
0 13 49 81 59 81 5 0 2 -8 -5 -17 -8 -9 -9 -14 -2 -10 6 4 13 4 16 0 2 -5 2
-2 1 4 -2 7 4 17 13 22 15 8 15 11 3 27 -14 16 -13 16 10 4 21 -11 23 -11 14
1 -6 8 -11 22 -11 31 0 14 4 15 20 6 12 -6 17 -6 13 0 -3 5 1 13 10 16 8 3 13
10 10 15 -4 5 -3 11 1 14 5 2 3 3 -3 1 -7 -1 -10 5 -7 17 3 10 10 19 15 19 5
0 6 -4 3 -10 -3 -6 1 -7 10 -4 14 6 14 8 -2 20 -17 12 -16 13 4 9 16 -3 20 0
16 11 -3 7 -9 11 -15 8 -5 -3 -4 3 4 15 7 12 16 21 21 21 4 0 5 5 1 12 -4 7
-3 8 4 4 13 -8 5 -36 -10 -36 -5 0 -6 -5 -2 -11 10 -17 32 30 29 61 -2 27 11
50 29 50 6 0 3 -7 -8 -15 -18 -13 -18 -14 2 -12 20 1 23 12 8 36 -7 11 -5 13
7 8 11 -4 20 1 27 13 6 11 8 20 4 20 -4 0 1 9 11 20 10 11 15 20 10 20 -4 0
-2 6 4 14 8 10 9 16 1 21 -6 4 -9 1 -8 -6 2 -6 -4 -14 -12 -16 -13 -4 -13 -3
0 6 8 6 11 11 5 11 -5 0 -2 7 8 14 10 8 19 23 20 35 1 14 5 17 11 11 6 -6 14
-10 19 -10 5 0 2 7 -7 15 -12 13 -13 21 -4 40 6 14 16 25 21 25 5 0 2 -11 -7
-25 -16 -25 -16 -25 3 -13 11 6 18 15 15 19 -2 4 0 10 5 14 6 3 8 12 4 20 -3
8 0 15 6 15 6 0 11 5 11 12 0 9 -3 9 -12 0 -7 -7 -16 -12 -21 -12 -5 0 -1 7 7
16 19 19 5 53 -22 55 -71 5 -180 4 -193 -2 -9 -5 -35 -56 -58 -115 -135 -338
-361 -649 -636 -875 -50 -41 -103 -83 -119 -94 -15 -11 -49 -35 -74 -54 -77
-58 -241 -155 -374 -220 -70 -35 -128 -62 -130 -61 -2 0 -28 -10 -58 -23 -55
-24 -185 -68 -315 -106 -84 -24 -247 -57 -330 -67 -33 -3 -62 -8 -65 -9 -11
-6 -232 -18 -335 -18 -121 0 -354 11 -364 17 -3 2 -35 7 -71 11 -35 3 -67 8
-70 10 -3 1 -27 6 -54 9 -76 11 -126 24 -391 104 -11 3 -31 11 -45 19 -14 7
-28 13 -32 13 -34 0 -407 208 -416 232 -2 4 -10 8 -17 8 -8 0 -23 12 -35 28
-12 15 -25 26 -28 26 -16 -3 -31 9 -25 19 3 5 2 8 -3 4 -5 -3 -38 21 -74 54
-36 32 -68 59 -72 59 -5 0 -8 7 -8 17 0 9 -3 13 -7 10 -7 -8 -93 80 -93 95 0
5 -4 7 -8 4 -5 -3 -16 8 -26 25 -9 16 -21 29 -26 29 -6 0 -21 17 -34 37 -13
21 -32 47 -42 58 -11 12 -28 32 -39 45 l-20 25 20 -15 c15 -11 14 -7 -5 15
-14 17 -27 32 -30 35 -3 3 -17 21 -32 41 -21 28 -24 39 -15 48 9 10 9 12 -3 9
-9 -2 -14 4 -14 14 1 9 -4 14 -11 12 -7 -3 -15 2 -19 11 -3 10 -2 14 5 9 7 -4
7 1 -1 15 -6 12 -18 25 -26 28 -8 3 -14 9 -14 15 0 5 4 6 10 3 6 -3 10 -1 10
4 0 6 -7 11 -16 11 -13 0 -14 3 -5 13 11 14 5 27 -13 27 -6 0 -4 -5 4 -11 13
-9 13 -10 0 -6 -8 2 -14 11 -12 21 2 9 -1 16 -6 16 -12 0 -30 46 -34 85 -2 17
-8 29 -15 28 -8 -2 -10 4 -6 14 5 12 3 14 -7 8 -10 -6 -11 -4 -4 6 15 25 13
39 -11 55 -20 13 -22 20 -15 39 6 15 6 27 -1 30 -5 4 -6 12 -2 18 5 9 3 9 -8
0 -13 -10 -15 -8 -13 17 1 17 -2 30 -6 30 -16 0 -18 40 -2 51 16 10 16 10 0 5
-10 -3 -20 -1 -23 4 -4 6 -2 10 2 10 5 0 9 10 10 22 0 13 -1 17 -4 11 -9 -25
-19 -13 -18 22 1 19 -2 35 -7 35 -9 0 -6 29 6 49 5 8 5 12 0 9 -5 -3 -16 1
-24 10 -13 14 -12 15 1 10 12 -5 15 0 13 19 -1 14 -9 30 -16 34 -10 7 -10 9 0
9 6 0 12 5 12 11 0 5 -4 7 -10 4 -6 -3 -10 -3 -11 2 0 4 -2 16 -4 26 -2 9 1
15 6 11 5 -3 9 0 9 5 0 6 -4 11 -10 11 -5 0 -10 4 -10 10 0 5 8 7 18 3 11 -4
8 1 -8 15 -21 19 -22 21 -5 16 17 -5 18 -4 5 8 -9 7 -15 20 -15 28 1 8 -3 20
-7 27 -6 7 -3 15 9 22 10 6 13 11 7 11 -7 0 -15 7 -18 16 -5 13 -3 14 7 6 10
-8 13 -6 13 8 0 10 -4 16 -8 14 -9 -6 -9 -9 -13 78 -3 50 -1 66 8 62 8 -3 13
4 13 16 0 22 -12 27 -18 8 -3 -7 -5 4 -6 25 -1 20 3 37 8 37 6 0 10 5 10 11 0
5 -4 8 -8 5 -4 -2 -8 18 -8 45 0 40 3 48 15 44 9 -3 12 -3 9 1 -4 4 -3 15 3
25 12 24 1 25 -17 2 -13 -17 -14 -17 -7 2 3 11 11 23 17 27 7 5 7 8 -2 8 -11
0 -12 18 -3 92 1 4 9 5 19 2 14 -5 15 -4 2 5 -15 10 -23 94 -9 85 4 -2 6 -13
4 -24 -2 -11 0 -20 4 -20 4 0 8 13 9 30 0 17 -4 30 -9 30 -9 0 -5 47 5 58 3 3
1 11 -4 17 -7 9 -6 16 4 24 8 6 12 20 9 30 -3 10 0 22 6 25 6 4 8 -2 6 -15 -4
-17 -2 -19 11 -8 13 10 13 14 0 28 -20 22 -20 34 0 41 9 4 18 14 20 23 1 9 -3
14 -11 11 -12 -5 -14 12 -5 36 1 3 2 9 1 14 -1 4 2 13 7 20 5 6 8 19 7 29 -2
12 8 26 28 38 23 15 26 19 10 14 -14 -4 -23 -2 -23 4 0 6 6 11 13 11 6 0 20
14 29 30 9 17 13 30 8 30 -5 0 -1 16 10 35 11 19 20 37 20 40 0 3 0 6 1 8 6
20 5 38 -1 42 -11 7 -1 35 12 35 6 0 5 -6 -2 -15 -7 -9 -8 -15 -2 -15 5 0 12
6 14 13 7 17 -2 38 -13 31 -5 -3 0 11 11 30 11 20 17 36 13 36 -3 0 1 8 10 18
8 9 16 20 16 25 1 4 2 9 2 12 1 3 3 10 4 15 1 6 3 12 4 15 0 3 11 1 22 -6 12
-6 19 -7 15 -1 -9 14 4 43 16 36 6 -4 5 3 -1 15 -14 25 3 66 22 54 7 -4 5 2
-3 12 -14 17 -14 18 9 6 17 -9 21 -10 16 -1 -4 6 3 22 16 36 12 13 18 24 13
24 -5 0 -1 7 9 14 16 12 16 14 2 20 -9 3 -13 2 -10 -4 3 -6 1 -10 -5 -10 -7 0
-9 -7 -6 -16 4 -10 2 -13 -6 -8 -7 5 -8 3 -3 -6 5 -9 4 -11 -4 -6 -7 4 -10 2
-9 -5 2 -6 -4 -14 -12 -16 -12 -4 -12 -3 -2 5 8 5 12 11 10 13 -6 8 42 79 54
79 9 0 9 -3 -2 -11 -10 -7 -11 -9 -2 -7 8 2 13 7 12 12 -1 4 7 14 17 22 10 7
14 14 10 14 -5 0 -1 7 7 16 13 12 14 20 5 37 l-12 22 23 -20 23 -20 -13 25
c-12 23 -12 24 4 11 14 -12 16 -12 10 4 -6 13 -4 16 6 10 10 -6 10 -4 3 10 -8
14 -4 27 21 61 17 23 35 43 40 43 5 1 3 -5 -3 -13 -8 -10 -9 -16 -1 -21 5 -3
10 -5 11 -3 0 2 3 16 5 31 4 22 2 27 -8 21 -7 -4 -1 5 15 21 15 15 27 32 27
36 0 5 8 9 18 9 16 -1 16 -1 -1 -11 -9 -6 -14 -15 -11 -21 4 -7 2 -8 -4 -4 -7
4 -12 4 -13 -1 0 -4 -2 -16 -4 -26 -2 -9 1 -15 6 -11 5 3 7 9 4 14 -3 4 2 11
11 14 9 3 12 11 8 18 -5 8 -2 9 10 5 9 -4 15 -3 12 2 -3 4 3 16 13 25 11 10
17 25 14 37 -3 11 0 19 6 19 7 0 9 -6 5 -12 -4 -7 6 -2 22 12 16 14 30 26 32
26 2 1 -4 4 -13 8 -11 4 -14 2 -9 -6 5 -7 3 -8 -6 -3 -9 6 -11 4 -5 -5 6 -9 4
-11 -5 -5 -9 6 -11 4 -5 -5 6 -9 4 -11 -4 -5 -9 5 -7 13 10 31 15 16 26 21 34
14 16 -14 27 0 14 17 -9 10 -8 13 0 13 7 0 9 5 5 13 -4 6 -4 9 1 5 5 -5 15 1
23 13 8 11 20 18 27 15 12 -4 75 46 75 61 0 3 -11 -4 -25 -17 -14 -13 -25 -19
-25 -13 0 6 7 14 16 17 8 3 12 11 9 16 -4 6 -1 9 7 8 7 -2 12 3 10 10 -1 8 2
11 8 7 5 -3 13 0 16 8 7 19 33 17 27 -2 -2 -9 2 -6 9 7 8 12 18 19 23 15 4 -4
5 -3 1 4 -4 7 -14 9 -24 6 -9 -3 -3 5 13 18 17 13 36 29 43 36 17 16 25 16 41
1 11 -11 11 -9 2 9 -12 24 -6 31 26 28 16 -1 20 3 18 17 -3 15 -1 16 17 7 16
-9 19 -8 13 2 -6 9 -3 11 8 6 16 -6 30 6 33 31 2 11 -1 11 -14 -1 -9 -8 -24
-17 -32 -21 -8 -4 1 6 20 22 29 25 38 28 55 19 18 -9 19 -9 5 8 -14 17 -14 18
10 5 23 -12 24 -12 11 4 -8 9 -11 19 -7 23 3 3 6 2 6 -4 0 -14 33 -12 48 4 8
7 19 10 25 6 7 -3 8 -2 4 3 -13 14 -31 11 -44 -6 -7 -8 -13 -10 -13 -4 0 6 7
17 15 24 8 7 15 9 15 6 0 -4 7 0 16 9 13 12 19 13 30 4 12 -10 13 -8 7 7 -6
17 -5 17 10 5 15 -12 17 -12 12 1 -4 9 5 22 22 34 32 21 42 23 65 12 12 -6 15
-4 11 10 -6 24 38 46 57 29 9 -8 11 -9 7 -1 -4 7 0 17 8 24 8 7 15 9 15 5 0
-5 9 0 20 10 11 10 20 15 20 11 0 -4 10 0 22 8 16 12 26 13 42 4 20 -11 20
-10 6 8 -8 10 -10 16 -6 12 5 -4 15 -3 23 4 11 9 12 7 7 -8 -4 -15 -1 -13 16
6 12 14 19 20 16 13 -4 -6 -2 -15 4 -18 6 -4 10 -3 9 2 -5 31 24 48 54 32 10
-6 18 -5 23 2 4 7 3 9 -4 5 -6 -3 -13 -2 -16 3 -4 5 5 8 19 6 14 -1 25 1 25 5
0 13 29 20 36 8 4 -6 3 -8 -4 -4 -6 3 -13 2 -16 -3 -7 -11 12 -9 39 6 11 6 28
9 38 8 9 -2 15 1 12 5 -3 5 -14 7 -25 5 -12 -2 -18 0 -14 6 3 6 9 8 12 5 3 -3
12 0 20 7 13 9 14 9 8 0 -9 -17 -5 -16 29 1 30 16 59 11 48 -8 -3 -6 -2 -7 3
-3 5 5 9 14 9 20 0 6 13 14 28 18 24 6 26 5 16 -7 -10 -12 -9 -13 5 -8 9 3 16
10 16 15 0 6 8 6 19 0 10 -6 22 -7 26 -3 6 7 10 8 36 11 5 0 7 7 3 14 -5 7 0
6 11 -3 11 -9 16 -10 11 -2 -4 7 -2 12 6 13 7 0 21 2 31 4 9 2 15 0 13 -4 -3
-4 4 -8 15 -8 10 -1 19 3 19 8 0 6 -5 7 -12 3 -6 -4 -8 -3 -4 4 6 10 43 9 54
-2 2 -3 11 2 19 10 11 11 19 12 28 4 10 -8 14 -7 18 2 4 10 6 10 6 1 1 -7 6
-13 12 -13 5 0 7 5 4 10 -9 14 8 12 24 -2 11 -10 13 -10 7 0 -4 6 -3 12 1 12
5 0 15 -6 22 -12 10 -11 11 -10 6 2 -4 11 1 16 14 16 11 0 17 -5 14 -10 -3 -5
-1 -6 6 -2 6 4 20 2 29 -6 15 -12 16 -11 3 5 -15 20 -2 23 18 5 12 -11 13 -10
7 6 -7 20 -7 20 15 0 12 -10 19 -14 16 -7 -4 6 -3 14 3 18 5 3 10 1 10 -6 0
-8 5 -7 17 2 14 12 16 12 8 0 -6 -11 -4 -13 7 -8 9 3 20 1 26 -5 6 -6 12 -6
17 3 5 8 4 10 -3 5 -7 -4 -12 -2 -12 3 0 14 36 9 52 -7 9 -9 16 -8 30 5 10 9
18 11 18 6 0 -16 28 -24 36 -11 4 7 3 8 -4 4 -7 -4 -12 -3 -12 3 0 10 39 9 57
-2 6 -4 15 -2 19 4 5 9 11 7 21 -6 7 -11 13 -14 13 -7 0 11 31 9 52 -4 7 -4 8
-3 4 4 -4 7 -2 12 3 12 6 0 11 -6 11 -12 0 -9 4 -8 10 2 9 14 14 7 11 -13 -1
-4 8 -2 19 5 17 11 22 10 29 -1 7 -11 9 -11 14 0 4 12 7 11 16 -1 10 -13 11
-13 11 0 0 9 3 11 8 5 4 -6 14 -10 22 -10 8 1 23 -3 34 -8 14 -7 17 -6 11 5
-6 10 -5 10 5 1 7 -6 19 -9 28 -6 9 4 13 2 9 -3 -4 -7 6 -9 25 -6 24 4 29 2
23 -9 -7 -12 -6 -12 7 -1 12 9 18 10 23 2 4 -7 15 -10 25 -7 11 3 29 -2 41
-11 18 -12 21 -12 14 -1 -5 8 0 6 12 -4 14 -12 23 -15 28 -8 4 8 11 6 21 -3 8
-9 21 -13 29 -10 8 4 15 2 15 -3 0 -5 10 -9 22 -10 11 -1 24 -7 28 -13 4 -7
10 -11 14 -10 4 1 17 -1 29 -5 12 -4 25 -7 30 -6 4 1 7 -3 7 -9 0 -5 7 -7 15
-4 8 4 15 1 15 -7 0 -7 3 -10 6 -6 7 7 235 -109 249 -127 6 -7 14 -13 18 -14
26 -3 185 -130 281 -225 223 -220 346 -425 444 -737 15 -45 41 -171 47 -224 3
-22 7 -52 10 -66 16 -76 22 -316 11 -440 -19 -228 -39 -331 -103 -520 -64
-190 -212 -455 -332 -594 -66 -77 -211 -234 -237 -256 -63 -56 -189 -130 -220
-130 -6 0 -25 -7 -40 -15 -40 -20 -64 -20 -38 1 10 8 14 13 8 10 -7 -3 -15 1
-18 10 -3 8 -2 12 3 9 5 -3 13 5 17 17 4 13 2 24 -5 26 -15 5 -14 35 2 51 10
11 9 12 -2 6 -11 -6 -13 -4 -7 11 16 38 18 54 7 54 -15 0 -14 33 2 49 10 11 9
12 -2 6 -11 -6 -13 -4 -8 8 20 49 20 53 3 32 l-16 -20 7 20 c3 11 11 26 17 34
8 11 8 13 0 8 -7 -4 -15 0 -18 9 -3 8 -2 12 3 9 5 -3 13 5 17 17 4 13 2 24 -5
26 -15 5 -14 35 2 51 10 11 9 12 -2 6 -11 -6 -13 -4 -7 11 16 38 18 54 7 54
-15 0 -14 33 2 49 10 11 9 12 -2 6 -11 -6 -13 -4 -7 11 4 10 10 30 12 43 5 22
3 23 -13 10 -17 -13 -17 -13 0 13 9 15 17 30 17 34 0 3 -8 0 -17 -7 -17 -13
-17 -13 0 13 20 33 22 45 4 29 -11 -8 -13 -6 -12 9 1 11 5 23 10 27 4 5 5 2 0
-6 -6 -10 -4 -12 4 -6 9 5 6 13 -11 29 -22 21 -26 21 -513 22 -269 0 -498 -3
-507 -8 -17 -8 -18 -48 -20 -570 l-3 -562 -552 0 c-458 -1 -554 2 -565 13 -10
10 -10 12 0 7 14 -8 14 -7 17 52 2 37 0 41 -14 30 -12 -10 -12 -7 3 16 10 16
13 25 7 22 -6 -4 -11 0 -11 9 0 9 5 13 10 10 6 -3 10 -1 10 4 0 6 -4 11 -10
11 -5 0 -10 12 -10 26 0 14 4 23 10 19 5 -3 7 -13 4 -23 -5 -14 -4 -14 4 -2 7
9 7 19 2 26 -6 6 -6 15 -2 19 4 5 1 5 -5 1 -9 -5 -13 1 -13 19 0 14 4 24 9 20
5 -3 13 -1 16 5 4 6 1 9 -6 8 -15 -4 -31 50 -17 58 6 4 9 3 6 -2 -3 -5 -1 -18
3 -29 9 -19 9 -19 5 2 -2 12 1 24 8 27 7 3 7 5 -2 5 -7 1 -10 6 -6 13 4 6 3 8
-4 4 -6 -3 -14 -1 -18 5 -4 7 -3 9 3 6 6 -4 16 -1 22 7 9 10 7 17 -6 27 -16
13 -17 12 -4 -4 7 -9 9 -17 3 -17 -14 0 -23 28 -12 35 6 4 14 3 20 0 6 -3 7 1
4 9 -3 9 -10 14 -14 11 -5 -3 -12 0 -16 6 -4 8 -3 9 4 5 6 -3 16 2 22 13 7 14
7 22 -2 27 -6 4 -8 3 -4 -4 3 -6 2 -13 -3 -16 -11 -7 -9 13 3 33 6 9 5 12 -2
7 -6 -3 -13 -2 -16 3 -4 5 -1 13 5 17 8 4 9 3 5 -4 -5 -8 -1 -10 10 -5 15 5
15 7 0 15 -22 12 -19 78 3 71 14 -4 14 -3 0 9 -16 13 -22 81 -7 72 5 -3 8 0 8
5 0 6 -4 11 -10 11 -5 0 -10 5 -10 11 0 5 4 8 9 5 5 -3 11 1 14 9 4 10 1 12
-11 8 -12 -5 -10 2 8 23 14 16 18 23 10 17 -21 -19 -26 -16 -26 17 0 19 4 29
11 26 6 -2 12 2 12 9 0 8 -5 13 -11 12 -16 -3 -14 66 3 86 13 16 13 17 -2 11
-13 -5 -16 -2 -11 10 3 9 9 14 13 11 4 -2 8 2 8 9 0 8 -7 12 -16 9 -11 -3 -10
0 3 11 16 13 16 16 5 16 -9 0 -16 7 -16 15 0 8 4 12 9 9 16 -10 30 7 17 22 -6
8 -9 25 -7 39 3 14 1 28 -5 32 -5 3 -7 1 -3 -5 3 -6 2 -13 -3 -16 -5 -4 -8 2
-6 11 2 10 4 22 4 27 1 5 8 2 18 -5 15 -13 15 -12 3 8 -11 17 -11 24 -1 37 9
11 10 20 2 33 -6 10 -11 12 -11 6 0 -7 -4 -13 -9 -13 -5 0 -7 9 -4 20 3 11 8
18 12 16 3 -2 7 7 7 20 1 13 -2 24 -8 24 -5 0 -7 -4 -3 -9 3 -5 1 -12 -4 -15
-5 -4 -8 2 -6 11 2 10 4 22 4 26 1 5 5 6 10 2 5 -3 13 0 17 6 4 8 3 9 -4 5 -7
-4 -12 -2 -12 4 0 6 -5 8 -12 4 -7 -4 -8 -3 -4 5 4 6 11 9 16 6 5 -3 12 0 16
6 4 8 3 9 -4 5 -6 -4 -16 4 -23 16 -11 20 -11 22 3 10 13 -10 18 -10 24 -1 5
8 3 9 -6 4 -10 -6 -12 -4 -7 9 4 9 3 15 -2 12 -5 -3 -11 0 -14 8 -4 10 1 12
16 9 17 -4 19 -2 8 5 -20 14 -23 42 -5 49 11 4 9 9 -9 25 l-22 19 25 -6 c21
-5 22 -4 7 5 -13 9 -15 15 -7 30 8 16 8 18 -5 14 -10 -4 -15 0 -15 10 0 18 3
18 -152 20 -115 1 -149 8 -109 21 12 3 21 11 21 17 0 6 3 8 6 5 4 -3 16 -2 27
4 15 8 18 8 12 -1 -6 -9 -3 -9 12 -1 11 6 24 7 28 3 3 -4 5 0 3 8 -1 8 4 14
12 15 8 0 14 8 12 17 -3 20 14 33 24 17 5 -8 3 -9 -6 -4 -8 5 -11 4 -6 -3 4
-6 14 -8 22 -5 13 5 13 7 2 14 -11 7 -10 10 1 21 8 7 11 8 8 2 -9 -15 20 -27
29 -12 4 7 3 8 -4 4 -7 -4 -12 0 -12 10 0 10 3 15 6 11 3 -3 17 5 31 18 15 14
35 22 50 20 15 -1 22 2 20 9 -3 7 11 22 30 35 19 12 32 18 28 12 -3 -6 -1 -11
4 -11 6 0 11 5 11 10 0 6 5 10 11 10 5 0 7 -5 4 -11 -4 -6 2 -5 14 3 12 7 21
17 21 22 0 4 -7 3 -15 -4 -8 -7 -15 -8 -15 -4 0 10 73 58 129 85 18 9 37 22
42 30 8 12 11 11 22 -3 12 -15 14 -15 25 3 7 11 17 17 22 14 5 -3 11 -1 14 4
4 5 1 13 -5 17 -8 5 -9 3 -4 -6 5 -8 4 -11 -3 -6 -6 3 -18 -1 -26 -10 -9 -8
-16 -11 -16 -7 0 5 14 20 31 32 18 13 29 19 25 12 -5 -7 1 -11 13 -11 12 0 21
5 21 11 0 5 -6 7 -12 3 -9 -5 -9 -3 1 9 7 9 17 14 22 11 5 -3 9 0 9 5 0 6 4
11 10 11 5 0 7 -8 4 -17 -5 -15 -4 -15 4 -3 6 8 9 17 6 22 -2 4 6 12 18 19 21
11 22 11 9 -5 -8 -9 -11 -19 -7 -23 3 -3 6 -2 6 4 0 6 11 14 24 17 13 3 27 13
30 23 6 15 4 15 -14 -2 -11 -10 -20 -13 -20 -8 0 18 68 54 76 41 5 -7 2 -8 -6
-3 -9 5 -11 4 -6 -3 4 -7 2 -12 -5 -12 -7 0 -9 -3 -6 -6 10 -10 38 17 30 29
-4 6 0 8 10 4 11 -4 14 -2 11 7 -3 8 0 17 7 22 7 4 10 3 6 -3 -4 -6 0 -13 8
-16 9 -4 12 -1 8 9 -7 19 28 46 43 33 7 -6 16 -4 24 6 7 9 19 14 27 11 10 -4
11 -1 3 14 -12 23 5 39 23 21 9 -9 7 -11 -8 -6 -16 5 -17 5 -5 -3 19 -14 31
-6 23 16 -6 14 -4 15 9 5 15 -13 28 -8 28 11 0 6 -5 4 -10 -4 -6 -9 -10 -10
-10 -3 0 17 17 25 25 13 5 -8 13 -6 24 4 10 9 21 13 26 9 4 -5 5 -2 1 5 -6 11
-12 10 -27 -4 -10 -9 -19 -13 -19 -7 0 5 12 16 26 23 22 12 27 12 34 0 7 -11
10 -12 10 -2 0 7 4 11 8 8 5 -3 9 1 9 9 0 11 -4 12 -13 4 -9 -7 -14 -6 -20 3
-4 7 -3 10 1 5 5 -4 16 0 26 9 13 12 19 12 25 3 5 -8 3 -10 -6 -4 -9 5 -11 4
-6 -4 9 -14 29 -4 23 12 -6 18 55 56 71 44 11 -9 13 -6 10 8 -1 11 2 20 9 20
6 0 15 3 19 8 4 4 12 7 18 7 5 0 1 -6 -9 -14 -11 -8 -24 -12 -29 -9 -5 4 -6 1
-2 -5 10 -17 59 17 52 35 -3 8 -2 12 3 9 4 -3 18 4 29 15 20 18 27 17 23 -4
-1 -5 3 -6 9 -2 6 3 8 11 4 16 -3 6 5 8 20 5 16 -3 25 0 23 7 -1 6 3 12 8 12
22 3 44 17 50 33 5 13 2 13 -15 -3 -11 -10 -20 -13 -20 -8 0 11 29 27 43 25 4
-1 7 3 7 9 0 8 4 8 15 -1 12 -10 14 -8 10 9 -3 15 0 18 12 14 11 -4 14 -2 9 5
-4 7 -1 12 7 12 7 0 23 9 35 20 12 12 22 17 22 13 0 -4 -12 -18 -27 -31 -27
-22 -27 -23 -2 -8 14 9 29 14 32 11 4 -3 5 -2 2 2 -3 4 11 14 31 23 25 12 32
19 21 23 -9 3 -18 -1 -21 -9 -3 -8 -10 -14 -16 -14 -6 0 -4 8 6 17 10 10 21
18 25 18 4 0 11 3 15 8 11 11 36 9 29 -3 -4 -6 -11 -7 -17 -4 -7 5 -8 2 -4 -5
6 -9 13 -8 27 5 20 18 25 29 9 19 -6 -3 -7 1 -4 10 5 11 10 13 19 5 9 -7 19
-5 36 10 l24 21 -28 -17 c-25 -15 -27 -15 -21 0 3 9 10 14 14 11 4 -3 13 1 19
9 6 7 22 11 35 9 16 -3 25 1 30 13 5 14 4 15 -8 5 -11 -9 -16 -9 -22 1 -4 7
-4 10 1 6 4 -4 20 1 35 12 19 13 30 16 37 9 8 -8 13 -7 18 2 5 8 4 10 -3 5 -8
-4 -10 -2 -6 8 3 9 12 12 21 9 12 -5 14 -3 8 8 -8 12 -6 12 8 0 15 -12 17 -12
11 2 -7 19 21 35 58 33 14 -1 24 2 22 6 -5 7 9 12 27 10 3 -1 6 5 6 13 0 12
-4 11 -21 -1 -11 -8 -25 -14 -31 -14 -5 0 4 8 20 19 23 14 33 16 44 7 12 -9
13 -8 8 7 -7 19 3 23 20 6 9 -9 10 -7 6 10 -3 13 -1 21 6 21 7 0 10 -4 7 -9
-7 -11 21 -8 31 4 4 4 2 5 -4 1 -8 -4 -13 -1 -13 9 0 9 4 14 9 10 6 -3 15 3
21 12 9 15 10 14 6 -7 -3 -14 -3 -19 0 -12 3 6 13 12 22 13 11 0 12 2 5 6 -7
2 -13 9 -13 14 0 4 7 6 15 2 9 -3 15 -2 14 3 -4 21 2 24 24 13 21 -12 21 -11
7 6 -14 17 -14 17 6 7 16 -9 21 -8 21 3 0 8 -5 11 -11 8 -6 -4 -5 1 3 10 7 9
17 14 22 11 5 -3 9 -1 9 5 0 6 8 8 18 5 14 -5 14 -4 2 4 -12 8 -15 30 -14 99
0 49 4 95 9 103 5 8 4 11 -2 7 -6 -4 -13 0 -17 8 -3 8 -13 15 -21 15 -9 0
-158 -89 -331 -197 -172 -109 -332 -209 -354 -223 -21 -14 -79 -50 -127 -80
-48 -30 -92 -57 -98 -59 -5 -2 -12 -7 -15 -11 -3 -3 -23 -17 -45 -30 -35 -21
-77 -47 -215 -135 -183 -117 -452 -285 -456 -285 -3 0 -10 -5 -17 -11 -7 -6
-140 -91 -297 -189 -157 -98 -289 -182 -295 -187 -5 -4 -50 -33 -100 -63 -49
-30 -91 -58 -93 -62 -2 -4 -8 -8 -13 -8 -5 0 -33 -15 -62 -34 -91 -58 -252
-161 -273 -173 -113 -68 -189 -118 -205 -134 -20 -20 -16 -49 7 -49 8 0 14 -5
14 -10 0 -7 6 -8 17 -2 12 7 24 5 40 -5 22 -15 23 -14 16 3 -6 17 -5 17 10 5
12 -9 17 -10 17 -2 0 7 5 9 10 6 6 -4 8 -12 4 -18 -3 -7 1 -4 9 6 13 16 18 17
37 5 19 -11 23 -11 27 0 4 10 8 9 17 -4 10 -13 15 -14 21 -4 6 9 4 11 -5 5 -8
-5 -11 -4 -7 2 5 8 56 10 65 3 1 -1 5 -3 10 -4 4 -1 13 -5 19 -9 9 -6 11 -3 6
10 -6 16 -5 16 10 4 12 -9 17 -10 17 -2 0 7 5 9 10 6 6 -4 8 -12 4 -18 -3 -7
1 -4 9 6 13 16 18 17 37 5 19 -11 23 -11 27 0 4 10 8 9 17 -4 10 -13 15 -14
21 -4 6 9 4 11 -5 5 -8 -5 -11 -4 -7 2 5 8 56 10 65 3 1 -1 5 -3 10 -4 4 -1
13 -5 19 -9 9 -6 11 -3 6 10 -6 16 -5 16 10 4 12 -9 17 -10 17 -2 0 7 5 9 10
6 6 -4 8 -12 4 -18 -3 -7 0 -5 8 3 12 14 18 16 46 11 5 0 9 -355 9 -787 0
-714 2 -787 16 -796 9 -5 20 -8 23 -8 4 1 11 -4 15 -12 7 -10 9 -10 9 2 0 13
1 13 10 0 9 -13 11 -13 20 0 5 8 10 10 10 4 0 -6 7 -11 15 -11 8 0 15 5 15 11
0 5 6 2 13 -9 11 -14 16 -15 22 -5 5 9 4 11 -3 6 -7 -4 -12 -3 -12 2 0 5 14 9
30 8 22 0 29 -5 25 -16 -3 -9 1 -7 10 4 8 11 15 14 15 7 0 -7 5 -9 13 -4 20
13 51 10 69 -5 16 -13 18 -13 24 2 5 14 9 15 15 4 6 -8 9 -9 9 -1 0 12 17 12
38 0 7 -5 12 -3 12 5 0 8 3 9 8 3 11 -15 32 -17 32 -3 0 6 6 4 13 -7 11 -14
16 -15 22 -5 5 9 4 11 -3 6 -7 -4 -12 -2 -12 3 0 12 27 10 48 -2 6 -5 12 -4
12 2 0 6 7 8 15 5 8 -4 13 -9 10 -13 -2 -4 2 -8 9 -8 9 0 12 7 8 16 -5 14 -4
14 13 1 11 -9 16 -10 11 -2 -8 13 19 13 41 -1 7 -5 13 -5 13 0 0 4 14 8 30 8
19 1 29 -4 26 -10 -2 -7 2 -12 10 -12 7 0 11 4 9 8 -3 4 2 10 11 13 10 4 13 2
8 -7 -6 -9 -4 -9 8 1 13 10 17 10 22 0 5 -10 7 -10 12 0 3 6 10 12 15 12 6 0
7 -6 3 -12 -5 -9 -2 -9 9 1 15 12 17 11 17 -3 0 -10 5 -14 10 -11 6 4 8 10 6
14 -3 4 2 8 10 8 8 0 13 -6 10 -12 -2 -6 2 -12 10 -12 7 0 11 4 9 8 -3 4 2 10
11 13 10 4 13 2 8 -7 -6 -9 -4 -9 8 1 13 10 17 10 22 0 5 -10 7 -10 12 0 3 6
10 12 15 12 6 0 7 -6 3 -12 -5 -9 -2 -9 9 1 15 12 17 11 17 -5 1 -18 2 -18 13
-2 12 15 14 15 23 0 9 -13 12 -13 19 -2 5 9 4 11 -3 6 -7 -4 -12 -2 -12 3 0
12 27 10 48 -2 6 -5 12 -4 12 2 0 6 7 8 15 5 8 -4 13 -9 10 -13 -2 -4 2 -8 9
-8 9 0 12 7 8 16 -5 14 -4 14 13 1 11 -9 16 -10 11 -2 -8 13 19 13 42 -1 7 -5
12 -3 12 5 0 8 3 9 8 3 11 -15 32 -17 32 -3 0 6 6 4 13 -7 11 -14 16 -15 22
-5 5 9 4 11 -3 6 -7 -4 -12 -2 -12 3 0 12 27 10 48 -2 6 -5 12 -4 12 2 0 6 7
8 15 5 8 -4 13 -9 10 -13 -2 -4 2 -8 9 -8 9 0 12 7 8 16 -5 14 -4 14 13 1 11
-9 16 -10 11 -2 -8 13 19 13 42 -1 7 -5 12 -3 12 5 0 8 3 9 8 3 11 -15 32 -17
32 -3 0 6 6 4 13 -7 11 -14 16 -15 22 -5 5 9 4 11 -3 6 -7 -4 -12 -2 -12 3 0
12 27 10 47 -2 6 -4 14 -1 16 5 4 10 6 10 6 1 1 -7 6 -13 12 -13 5 0 8 4 5 8
-3 5 1 9 9 9 8 0 12 -4 9 -9 -3 -4 0 -8 5 -8 6 0 11 5 11 10 0 6 7 10 15 10 9
0 18 7 21 15 4 8 9 13 13 10 4 -2 8 2 8 10 0 8 -4 12 -8 9 -4 -2 -10 0 -14 6
-3 6 4 10 17 10 18 0 20 2 8 9 -8 6 -18 7 -24 4 -5 -3 -6 -1 -2 6 4 6 11 9 16
6 5 -3 12 0 16 6 5 8 3 9 -6 4 -10 -6 -12 -4 -7 8 3 8 0 18 -8 21 -8 3 -11 13
-8 26 4 16 8 18 14 9 5 -8 3 -17 -4 -22 -8 -6 -7 -7 3 -4 8 2 13 11 11 18 -2
8 -4 19 -4 26 0 7 -4 10 -9 7 -4 -3 -8 2 -8 11 0 9 4 14 9 10 5 -3 13 0 17 6
4 8 3 9 -4 5 -6 -3 -16 3 -22 14 -11 20 -10 21 9 10 27 -14 27 -6 -1 21 -18
17 -19 21 -5 16 9 -4 17 -2 17 3 0 6 -4 10 -10 10 -5 0 -10 5 -10 11 0 5 5 7
10 4 6 -3 10 -1 10 4 0 6 -4 11 -10 11 -5 0 -10 8 -10 18 0 14 2 15 10 2 7
-11 10 -12 10 -2 0 7 -7 21 -16 29 -15 15 -14 18 7 34 20 15 21 17 5 16 -10
-1 -21 4 -23 11 -3 6 0 12 7 12 6 0 8 -6 4 -12 -4 -8 -2 -8 7 1 11 10 11 15 2
18 -7 3 -13 9 -13 14 0 6 5 7 10 4 6 -3 10 -1 10 4 0 6 -4 11 -10 11 -5 0 -10
8 -10 18 0 14 2 15 10 2 7 -11 10 -12 10 -2 0 7 -7 21 -16 29 -15 15 -14 18 8
35 12 10 16 16 7 12 -10 -3 -20 0 -25 7 -4 7 -3 10 4 5 6 -3 13 -2 17 4 3 5 1
10 -4 10 -6 0 -11 12 -11 28 0 20 3 23 9 12 6 -8 7 -18 4 -24 -3 -5 -1 -6 5
-2 8 5 9 13 2 25 -5 10 -6 22 -2 26 4 5 1 5 -5 1 -8 -4 -13 -1 -13 9 0 9 4 14
9 10 5 -3 13 0 17 6 4 8 3 9 -4 5 -6 -3 -16 3 -22 14 -11 20 -10 21 9 11 17
-10 20 -9 15 4 -4 8 -11 15 -16 15 -6 0 -4 8 3 17 8 10 9 14 2 10 -6 -4 -14
-3 -18 3 -3 6 4 10 17 10 18 0 20 2 8 9 -8 6 -18 7 -24 4 -5 -3 -6 -1 -2 6 4
6 11 9 16 6 5 -3 12 0 16 6 5 8 3 9 -6 4 -10 -6 -12 -4 -7 8 3 8 0 18 -8 21
-8 3 -11 13 -8 26 4 16 8 18 14 9 5 -8 3 -17 -4 -22 -8 -6 -7 -7 3 -4 8 2 13
11 11 18 -2 8 -4 19 -4 26 0 7 -4 10 -9 7 -4 -3 -8 2 -8 11 0 9 4 14 9 10 5
-3 13 0 17 6 4 8 3 9 -4 5 -6 -3 -16 3 -22 14 -11 20 -10 21 9 11 17 -10 20
-9 15 4 -4 8 -11 15 -16 15 -6 0 -4 8 3 17 8 10 9 14 2 10 -6 -4 -14 -3 -18 3
-3 6 4 10 17 10 18 0 20 2 8 9 -8 6 -18 7 -24 4 -5 -3 -6 -1 -2 6 4 6 12 9 17
6 5 -3 6 2 2 11 -5 13 -3 15 8 10 8 -4 6 -1 -3 7 -10 8 -18 25 -18 38 0 19 2
21 9 9 6 -8 7 -18 4 -24 -3 -5 -1 -6 5 -2 8 5 9 13 2 25 -5 10 -6 22 -2 26 4
5 1 5 -6 0 -10 -5 -13 -2 -10 11 2 11 12 19 25 20 14 1 20 -3 16 -10 -3 -6 0
-5 8 2 7 6 17 12 22 12 4 0 5 -6 1 -12 -5 -9 -2 -9 9 1 13 10 17 10 17 1 0
-10 3 -10 15 0 12 10 15 10 15 -1 0 -11 3 -11 11 1 8 11 12 12 16 3 2 -7 9
-13 14 -13 6 0 7 5 4 10 -3 6 -2 10 4 10 5 0 12 -4 16 -9 7 -12 42 -6 61 10
12 10 13 9 8 -4 -6 -16 18 -19 32 -4 12 12 26 8 18 -5 -5 -9 -2 -9 9 1 13 10
17 10 17 1 0 -10 3 -10 15 0 12 10 15 10 15 -1 0 -11 3 -11 11 1 8 11 12 12
16 3 2 -7 9 -13 14 -13 6 0 7 5 4 10 -9 14 7 12 28 -4 16 -12 17 -46 17 -462
0 -429 1 -450 19 -466 14 -12 22 -13 31 -5 10 9 11 9 6 0 -5 -9 1 -12 18 -11
15 1 26 6 26 11 0 5 -8 6 -17 2 -14 -5 -15 -4 -6 6 10 10 16 9 29 -2 16 -12
17 -12 12 3 -6 14 0 16 41 14 33 -1 48 2 48 11 0 9 -4 10 -14 2 -8 -7 -13 -8
-13 -1 0 16 26 22 40 9 8 -8 11 -8 7 -1 -4 6 5 16 19 23 15 6 23 7 19 1 -3 -5
-1 -10 4 -10 6 0 11 7 11 16 0 12 7 15 25 12 13 -3 22 -1 19 4 -3 5 8 6 25 3
23 -4 33 0 45 17 9 12 16 19 16 14 0 -5 9 -1 20 9 11 10 20 15 20 10 0 -4 7
-2 15 5 8 6 13 16 12 21 -3 15 60 52 68 39 4 -6 3 -9 -2 -8 -16 4 -66 -29 -54
-36 6 -4 11 -2 11 4 0 6 4 9 9 6 5 -3 12 1 15 9 3 8 9 14 13 13 4 -2 25 7 45
20 25 16 35 28 31 39 -5 13 -3 14 18 3 21 -12 22 -11 12 2 -9 10 -10 17 -2 25
14 14 41 5 32 -10 -3 -6 -1 -7 6 -3 9 6 9 11 -1 24 -11 13 -11 14 8 4 16 -9
21 -8 21 3 0 8 -5 11 -11 8 -6 -3 0 6 13 20 20 23 41 28 41 11 0 -3 -5 -2 -12
2 -7 5 -8 3 -3 -6 6 -9 4 -11 -5 -5 -9 6 -11 4 -5 -5 6 -9 4 -11 -5 -5 -9 6
-11 4 -5 -4 5 -9 13 -8 29 7 11 11 31 27 43 37 12 10 19 23 17 29 -3 7 8 24
24 39 20 19 29 23 29 13 0 -8 -5 -12 -10 -9 -6 4 -7 1 -2 -7 6 -9 4 -11 -5 -5
-9 6 -11 4 -5 -5 6 -9 4 -11 -5 -5 -9 6 -11 4 -5 -5 6 -9 4 -11 -5 -5 -9 6
-11 4 -5 -4 10 -18 55 26 55 55 0 15 9 27 29 35 16 7 27 18 23 24 -3 5 3 3 13
-5 17 -14 18 -14 6 7 -10 19 -9 22 4 17 8 -4 15 -11 15 -17 0 -6 3 -7 6 -4 4
4 2 13 -5 21 -9 11 -8 17 4 30 19 18 50 22 39 4 -4 -7 -3 -8 4 -4 15 9 3 38
-12 29 -12 -7 -4 3 72 93 29 33 52 66 52 72 0 6 10 18 23 27 12 8 21 19 20 23
-2 4 8 6 22 6 13 -1 22 3 19 8 -3 4 -10 6 -15 3 -14 -9 -5 29 14 59 10 14 23
26 30 26 8 0 8 -3 -2 -9 -8 -5 -9 -11 -3 -15 14 -9 21 15 11 36 -10 18 4 33
20 23 5 -3 12 -1 15 4 4 5 1 13 -5 17 -8 5 -9 3 -4 -6 5 -9 4 -11 -4 -6 -8 6
-9 12 -2 20 6 7 7 17 3 21 -4 5 -1 4 7 0 11 -6 13 -4 8 8 -4 11 -2 14 9 10 13
-5 13 -8 -2 -24 -9 -11 -12 -19 -7 -19 6 0 14 8 18 18 12 27 14 43 5 37 -5 -3
-7 3 -6 12 2 9 9 19 17 21 11 3 12 2 1 -6 -11 -7 -11 -10 3 -15 9 -4 13 -3 10
3 -3 6 -1 10 6 10 7 0 4 7 -7 15 -19 15 -19 16 1 13 14 -2 19 2 17 15 -2 9 3
17 9 17 7 0 9 3 6 7 -4 3 -17 -2 -29 -13 -23 -19 -23 -19 -7 1 20 24 35 59 38
86 1 8 6 8 16 -1 14 -11 14 -10 6 12 -7 18 -6 29 2 37 6 6 7 11 3 11 -5 0 -3
7 4 15 7 8 9 15 6 15 -4 0 -1 10 6 23 7 12 11 28 10 35 -2 6 2 12 8 12 6 0 9
4 5 9 -3 5 -1 12 4 16 5 3 8 14 6 25 -2 12 0 18 4 16 5 -3 16 3 26 14 10 12
13 20 7 20 -7 0 -12 -4 -12 -10 0 -5 -5 -10 -11 -10 -6 0 -7 5 -2 13 4 6 6 19
5 29 -2 9 2 20 9 24 7 4 9 3 6 -3 -3 -5 0 -10 8 -10 8 0 12 4 9 9 -3 5 -1 14
5 21 7 9 7 17 -1 27 -8 12 -9 12 -4 -2 3 -10 2 -19 -2 -22 -4 -3 -9 8 -10 24
-1 16 2 31 7 34 4 3 7 17 6 31 -2 14 1 23 5 20 5 -3 7 -12 3 -20 -3 -8 1 -15
8 -15 7 0 9 3 6 7 -4 3 -1 13 6 21 9 13 9 14 0 8 -8 -4 -13 -1 -14 8 -1 9 -2
24 -3 33 0 9 6 18 14 20 9 3 11 1 5 -4 -5 -4 -11 -15 -13 -23 -2 -11 2 -10 12
3 8 10 12 30 10 44 -3 18 -1 23 8 17 10 -5 10 -4 1 6 -8 9 -9 19 -2 32 5 10 7
18 4 18 -3 0 -1 10 6 21 8 17 8 20 -1 14 -9 -5 -10 -1 -5 16 4 16 3 20 -3 11
-7 -11 -10 -11 -15 3 -4 9 -3 14 2 11 5 -3 8 11 6 32 -2 24 5 49 18 72 19 32
19 34 2 20 -17 -13 -18 -13 -13 1 4 9 2 21 -4 27 -8 8 -4 9 13 6 19 -4 21 -3
8 5 -22 14 -21 147 1 162 12 9 12 10 -3 5 -12 -4 -17 -2 -14 6 2 7 10 12 16
10 8 -1 9 2 5 10 -12 19 -13 52 -2 59 5 3 2 9 -7 12 -9 4 -13 3 -10 -3 3 -6 2
-10 -2 -10 -5 0 -9 21 -9 46 -1 26 2 41 6 34 5 -7 8 -2 8 14 0 19 -4 24 -12
17 -8 -7 -11 -3 -11 15 1 13 5 27 8 31 4 3 7 11 7 17 0 6 -5 4 -10 -4 -9 -13
-10 -13 -11 0 0 8 -2 23 -4 33 -2 9 2 17 8 17 8 0 9 3 1 8 -18 12 -25 44 -13
58 9 11 7 14 -7 14 -15 0 -16 2 -5 9 9 6 10 10 2 12 -14 5 -17 36 -6 62 5 12
3 17 -8 17 -19 0 -26 27 -15 59 8 22 7 23 -9 10 -11 -9 -14 -10 -9 -1 4 7 2
12 -6 12 -9 0 -9 3 2 10 8 5 10 10 3 10 -6 0 -9 9 -5 22 3 14 2 19 -6 14 -7
-4 -12 -3 -12 3 0 5 6 12 13 14 7 3 4 6 -6 6 -10 1 -15 6 -12 11 3 6 1 10 -4
10 -6 0 -11 4 -11 10 0 5 6 8 13 6 6 -1 9 -1 4 1 -4 3 -4 10 -1 15 4 6 2 8 -4
4 -6 -3 -13 -2 -16 3 -4 5 -2 12 4 16 13 8 3 25 -13 25 -7 0 -6 -4 3 -10 8 -5
10 -10 4 -10 -19 0 -24 13 -11 28 7 9 7 13 1 9 -6 -3 -16 5 -23 19 -9 20 -9
24 1 18 10 -6 11 -5 1 8 -7 8 -11 18 -8 21 3 4 2 5 -2 2 -9 -7 -32 27 -33 48
0 9 -6 17 -12 17 -10 0 -9 3 1 9 11 7 9 10 -8 16 -11 3 -21 11 -21 16 0 6 5 7
11 3 8 -5 8 -1 0 14 -6 11 -18 22 -27 26 -9 3 -14 13 -11 20 3 8 -2 20 -11 28
-16 12 -16 11 -2 -7 14 -18 14 -19 -2 -7 -9 7 -15 22 -13 33 2 11 0 17 -6 14
-5 -4 -9 1 -9 9 0 8 -5 18 -12 22 -7 4 -8 3 -4 -4 4 -7 5 -12 3 -12 -11 0 -47
73 -41 82 4 6 3 8 -3 5 -11 -7 -45 28 -36 37 4 3 1 6 -6 6 -7 0 -9 5 -5 12 4
6 3 8 -3 5 -6 -4 -19 5 -29 19 -11 15 -34 40 -52 57 -17 17 -30 33 -27 35 3 3
-9 13 -25 23 -17 11 -30 24 -30 29 0 6 -4 8 -10 5 -5 -3 -10 1 -10 9 0 9 -4
16 -10 16 -5 0 -20 11 -34 25 -14 14 -30 25 -36 25 -6 0 -8 5 -5 10 3 6 0 10
-9 10 -8 0 -16 3 -18 8 -12 28 -260 186 -345 221 -18 7 -33 18 -33 24 0 6 -3
7 -7 4 -3 -4 -11 -3 -17 2 -11 9 -195 80 -218 85 -7 2 -20 6 -28 9 -8 3 -33
11 -55 17 -22 6 -47 14 -55 17 -8 3 -19 7 -25 8 -23 6 -172 35 -200 40 -16 2
-41 7 -55 10 -30 6 -87 14 -155 22 -56 6 -581 14 -586 8z m331 -239 c0 -3 -4
-8 -10 -11 -5 -3 -10 -1 -10 4 0 6 5 11 10 11 6 0 10 -2 10 -4z m-580 -56 c0
-5 -2 -10 -4 -10 -3 0 -8 5 -11 10 -3 6 -1 10 4 10 6 0 11 -4 11 -10z m-1296
-691 c-3 -5 -10 -7 -15 -3 -5 3 -7 10 -3 15 3 5 10 7 15 3 5 -3 7 -10 3 -15z
m-166 -186 c-15 -18 -21 -9 -13 18 6 16 9 18 16 8 4 -8 3 -19 -3 -26z m-213
-273 c-10 -11 -14 -20 -9 -20 11 0 -17 -20 -29 -20 -4 0 1 10 13 22 11 12 20
25 20 30 0 4 5 8 12 8 6 0 3 -9 -7 -20z m2228 -191 c-8 -8 -13 -7 -18 2 -5 8
-4 10 3 5 7 -4 12 -2 12 5 0 7 3 9 7 6 4 -4 2 -12 -4 -18z m-2370 -64 c-3 -8
-10 -15 -15 -15 -7 0 -6 5 1 13 6 8 7 18 3 22 -4 5 -2 5 5 1 7 -4 10 -13 6
-21z m1903 -220 c-14 -14 -16 -14 -16 -2 0 9 6 17 13 20 19 7 21 -1 3 -18z
m2671 5 c-1 -11 -5 -20 -9 -20 -10 0 -10 4 -2 24 8 22 13 20 11 -4z m-4682
-37 c-2 -10 -4 -19 -5 -20 -2 -2 -3 -8 -4 -15 0 -6 -8 -13 -16 -15 -12 -4 -12
-3 -2 5 8 5 13 12 13 16 -3 24 0 46 8 46 5 0 8 -8 6 -17z m-25 -72 c0 -6 -4
-12 -10 -16 -5 -3 -7 -11 -4 -18 2 -7 -2 -21 -9 -31 -12 -16 -14 -16 -14 -2 0
9 4 16 8 16 5 0 6 6 3 14 -3 8 0 17 5 21 6 3 9 11 6 16 -4 5 -1 9 4 9 6 0 11
-4 11 -9z m4696 -334 c-3 -12 -5 -25 -5 -29 -1 -5 -6 -8 -12 -8 -8 0 -8 4 -2
13 6 6 9 22 8 34 -1 12 2 20 7 17 4 -3 6 -15 4 -27z m-10 -67 c0 -11 -4 -20
-8 -20 -10 0 -11 24 -1 33 9 9 9 10 9 -13z m-3490 -12 c4 -7 3 -10 -1 -5 -5 4
-17 0 -27 -10 -10 -9 -18 -13 -18 -8 0 6 29 33 37 35 1 0 5 -6 9 -12z m150
-486 c-18 -16 -18 -16 -6 6 6 13 14 21 18 18 3 -4 -2 -14 -12 -24z m9 -132 c3
-6 -1 -7 -9 -4 -18 7 -21 14 -7 14 6 0 13 -4 16 -10z m2145 -209 c0 -6 -4 -12
-8 -15 -5 -3 -9 1 -9 9 0 8 4 15 9 15 4 0 8 -4 8 -9z m0 -121 c0 -5 -2 -10 -4
-10 -3 0 -8 5 -11 10 -3 6 -1 10 4 10 6 0 11 -4 11 -10z m-3615 -9 c3 -5 2
-12 -3 -15 -5 -3 -9 1 -9 9 0 17 3 19 12 6z m3615 -190 c0 -6 -4 -12 -8 -15
-5 -3 -9 1 -9 9 0 8 4 15 9 15 4 0 8 -4 8 -9z m0 -121 c0 -5 -2 -10 -4 -10 -3
0 -8 5 -11 10 -3 6 -1 10 4 10 6 0 11 -4 11 -10z m468 -54 c-2 0 -12 -9 -24
-19 -17 -14 -21 -14 -21 -2 0 8 4 12 9 9 4 -3 11 2 14 10 3 9 10 13 16 10 5
-3 8 -7 6 -8z m-3972 -72 c1 -9 0 -13 -4 -10 -3 4 -7 14 -8 22 -1 9 0 13 4 10
3 -4 7 -14 8 -22z m4862 -72 c-7 -8 -13 -21 -14 -29 -4 -24 -14 -28 -14 -5 0
11 5 24 10 27 6 4 8 10 6 14 -3 4 1 8 9 8 12 0 12 -3 3 -15z m-1103 -1 c3 -6
-4 -15 -15 -21 -20 -11 -21 -10 -10 9 12 23 16 25 25 12z m-125 -82 c0 -5 -4
-8 -9 -4 -5 3 -16 -1 -24 -9 -8 -8 -17 -13 -20 -10 -3 3 -10 -4 -16 -15 -11
-20 -43 -24 -56 -8 -3 4 -2 5 2 2 3 -3 12 0 20 6 7 6 13 9 13 6 0 -4 16 5 36
18 40 27 54 31 54 14z m-2290 -79 c0 -5 -2 -10 -4 -10 -3 0 -8 5 -11 10 -3 6
-1 10 4 10 6 0 11 -4 11 -10z m3370 -115 c0 -2 -6 -5 -13 -8 -8 -3 -14 1 -14
8 0 7 6 11 14 8 7 -3 13 -6 13 -8z m-60 -79 c0 -3 -4 -8 -10 -11 -5 -3 -10 -1
-10 4 0 6 5 11 10 11 6 0 10 -2 10 -4z m-646 -674 c3 -5 -1 -9 -9 -9 -8 0 -12
4 -9 9 3 4 7 8 9 8 2 0 6 -4 9 -8z m-711 -383 c-6 -6 -17 -11 -24 -12 -8 -2
-19 -6 -26 -10 -6 -4 -15 -2 -19 4 -4 7 -3 9 4 5 6 -3 13 -2 17 4 4 6 10 8 14
6 4 -3 13 -1 21 5 20 12 26 11 13 -2z"/>
<path d="M2975 5510 c-3 -5 -1 -10 4 -10 6 0 11 5 11 10 0 6 -2 10 -4 10 -3 0
-8 -4 -11 -10z"/>
<path d="M2383 5373 c-7 -2 -13 -9 -13 -15 0 -7 5 -7 13 1 8 6 18 7 22 3 5 -4
5 -1 1 6 -4 6 -8 12 -9 11 -1 0 -8 -3 -14 -6z"/>
<path d="M2235 5310 c-3 -5 -1 -10 4 -10 6 0 11 5 11 10 0 6 -2 10 -4 10 -3 0
-8 -4 -11 -10z"/>
<path d="M2200 5295 c-7 -8 -16 -12 -21 -9 -5 3 -9 0 -9 -5 0 -6 3 -11 8 -11
12 1 46 30 40 35 -3 3 -11 -1 -18 -10z"/>
<path d="M2115 5257 c-14 -11 -15 -16 -5 -22 9 -5 11 -4 6 3 -4 7 -1 12 8 12
9 0 16 5 16 10 0 13 -3 13 -25 -3z"/>
<path d="M2030 5215 c-15 -18 1 -26 23 -10 15 10 15 14 3 18 -8 3 -20 0 -26
-8z"/>
<path d="M1707 4989 c7 -7 15 -10 18 -7 3 3 -2 9 -12 12 -14 6 -15 5 -6 -5z"/>
<path d="M1647 4946 c-18 -15 -23 -23 -13 -23 8 0 18 7 20 14 3 8 10 12 15 8
5 -3 12 -1 15 4 13 20 -10 18 -37 -3z"/>
<path d="M4237 4889 c7 -7 15 -10 18 -7 3 3 -2 9 -12 12 -14 6 -15 5 -6 -5z"/>
<path d="M1560 4865 c-7 -9 -8 -15 -2 -15 5 0 12 7 16 15 3 8 4 15 2 15 -2 0
-9 -7 -16 -15z"/>
<path d="M4235 4860 c-3 -5 -1 -10 4 -10 6 0 11 5 11 10 0 6 -2 10 -4 10 -3 0
-8 -4 -11 -10z"/>
<path d="M4235 4800 c3 -5 8 -10 11 -10 2 0 4 5 4 10 0 6 -5 10 -11 10 -5 0
-7 -4 -4 -10z"/>
<path d="M1446 4755 c-9 -14 -12 -25 -7 -25 5 0 13 9 16 20 4 11 11 17 17 14
7 -4 8 -2 4 4 -10 16 -11 16 -30 -13z"/>
<path d="M4233 4735 c0 -8 4 -12 9 -9 4 3 8 9 8 15 0 5 -4 9 -8 9 -5 0 -9 -7
-9 -15z"/>
<path d="M4210 4676 c7 -7 13 -7 20 0 6 6 3 10 -10 10 -13 0 -16 -4 -10 -10z"/>
<path d="M3907 4489 c7 -7 15 -10 18 -7 3 3 -2 9 -12 12 -14 6 -15 5 -6 -5z"/>
<path d="M1192 4459 c-14 -17 -18 -30 -12 -34 6 -4 9 -1 8 7 -2 7 3 12 10 10
8 -1 11 2 8 7 -4 5 -1 11 5 13 7 2 10 9 8 14 -2 6 -14 -2 -27 -17z"/>
<path d="M3797 4433 c-4 -3 -7 -11 -7 -17 0 -6 5 -5 12 2 6 6 9 14 7 17 -3 3
-9 2 -12 -2z"/>
<path d="M5470 4346 c0 -2 7 -7 16 -10 8 -3 12 -2 9 4 -6 10 -25 14 -25 6z"/>
<path d="M995 4130 c-3 -6 1 -7 9 -4 18 7 21 14 7 14 -6 0 -13 -4 -16 -10z"/>
<path d="M5525 4110 c-3 -6 1 -7 9 -4 18 7 21 14 7 14 -6 0 -13 -4 -16 -10z"/>
<path d="M3266 4102 c-3 -5 1 -9 9 -9 8 0 15 4 15 9 0 4 -4 8 -9 8 -6 0 -12
-4 -15 -8z"/>
<path d="M942 4045 c4 -4 4 -13 -2 -19 -5 -7 -5 -17 2 -26 8 -13 9 -12 5 1 -3
9 -1 21 5 27 6 6 5 12 -4 17 -7 5 -10 5 -6 0z"/>
<path d="M3147 4032 c-15 -16 -15 -18 3 -19 13 -1 18 4 17 18 -2 23 0 23 -20
1z"/>
<path d="M919 3986 c-1 -3 -2 -9 -3 -13 -1 -5 -5 -14 -9 -20 -5 -7 -5 -13 -1
-13 3 0 1 -6 -5 -14 -9 -11 -9 -16 0 -22 7 -4 9 -3 5 4 -3 6 2 15 11 21 13 7
14 10 4 11 -11 0 -10 4 3 19 11 12 14 21 7 26 -6 3 -12 4 -12 1z"/>
<path d="M5545 3961 c-3 -5 -2 -12 3 -15 5 -3 9 1 9 9 0 17 -3 19 -12 6z"/>
<path d="M2831 3837 c-8 -10 -7 -14 2 -14 8 0 14 6 14 14 0 7 -1 13 -2 13 -2
0 -8 -6 -14 -13z"/>
<path d="M5553 3689 c-2 -23 3 -25 10 -4 4 8 3 16 -1 19 -4 3 -9 -4 -9 -15z"/>
<path d="M789 3625 c-1 -3 -2 -14 -3 -24 0 -11 -4 -23 -8 -27 -5 -4 -8 -12 -8
-18 0 -6 5 -3 11 6 5 10 9 21 9 24 -1 4 4 11 12 15 10 7 10 9 -2 9 -13 0 -13
1 0 10 10 6 11 10 3 10 -7 0 -14 -2 -14 -5z"/>
<path d="M2448 3603 c-16 -8 -28 -19 -27 -26 0 -9 2 -9 6 1 2 6 10 12 16 12 7
0 21 7 31 15 25 19 10 18 -26 -2z"/>
<path d="M2362 3555 c-18 -13 -28 -26 -22 -30 5 -3 10 -1 10 4 0 6 7 11 15 11
8 0 15 5 15 10 0 6 5 9 11 8 6 -2 14 3 16 10 7 18 -7 14 -45 -13z"/>
<path d="M5544 3541 c1 -16 4 -33 8 -37 4 -3 5 6 2 21 -3 20 -1 25 8 19 10 -6
9 -3 -1 9 -18 22 -18 22 -17 -12z"/>
<path d="M765 3530 c-3 -5 -1 -10 4 -10 6 0 11 5 11 10 0 6 -2 10 -4 10 -3 0
-8 -4 -11 -10z"/>
<path d="M2250 3480 c0 -6 -4 -9 -9 -5 -12 7 -22 -8 -13 -21 4 -6 14 -3 24 8
10 10 13 20 8 23 -6 4 -10 1 -10 -5z"/>
<path d="M2145 3420 c-8 -9 -15 -20 -15 -25 0 -4 9 2 19 14 13 14 20 18 23 9
3 -8 6 -7 10 3 8 21 -18 20 -37 -1z"/>
<path d="M735 3367 c-13 -10 -15 -16 -6 -21 7 -5 15 -5 18 -2 4 3 0 6 -7 6 -9
0 -7 5 6 15 10 8 16 15 13 15 -3 0 -13 -6 -24 -13z"/>
<path d="M729 3323 c0 -5 -2 -16 -4 -26 -2 -9 1 -15 6 -11 5 3 7 10 4 15 -4 5
-1 9 4 9 6 0 11 5 11 10 0 11 -20 14 -21 3z"/>
<path d="M1920 3280 c-9 -6 -10 -10 -3 -10 6 0 15 5 18 10 8 12 4 12 -15 0z"/>
<path d="M5494 3209 c-4 -7 -3 -9 4 -5 5 3 13 0 15 -6 4 -9 6 -10 6 -1 1 17
-16 25 -25 12z"/>
<path d="M704 3121 c1 -16 3 -32 6 -35 3 -3 5 8 5 24 0 16 -3 31 -6 34 -3 3
-5 -7 -5 -23z"/>
<path d="M2193 3125 c0 -8 4 -12 9 -9 5 3 6 10 3 15 -9 13 -12 11 -12 -6z"/>
<path d="M5470 3041 c0 -7 -5 -9 -12 -5 -7 4 -10 4 -6 -1 4 -4 3 -15 -4 -24
-7 -9 -1 -6 12 6 13 12 21 26 17 29 -4 4 -7 2 -7 -5z"/>
<path d="M5450 2981 c0 -7 -5 -9 -10 -6 -6 4 -9 3 -8 -2 1 -4 -3 -18 -10 -30
-7 -13 -10 -23 -6 -23 3 0 1 -7 -6 -15 -7 -8 -9 -15 -5 -15 4 0 2 -6 -4 -13
-8 -10 -7 -14 4 -14 8 0 12 4 9 8 -2 4 0 10 5 14 5 3 8 15 6 26 -3 16 0 19 13
14 14 -5 14 -4 5 6 -10 10 -9 16 4 31 9 10 13 21 10 25 -4 3 -7 1 -7 -6z"/>
<path d="M693 2950 c1 -21 10 -18 13 5 1 8 -2 15 -6 15 -5 0 -8 -9 -7 -20z"/>
<path d="M693 2875 c0 -8 4 -12 9 -9 5 3 6 10 3 15 -9 13 -12 11 -12 -6z"/>
<path d="M5376 2812 c2 -3 -1 -11 -7 -18 -7 -8 -6 -14 2 -20 7 -4 9 -3 5 4 -3
5 0 12 6 15 9 3 10 7 2 15 -6 5 -9 7 -8 4z"/>
<path d="M693 2751 c1 -15 4 -17 14 -9 7 5 10 14 7 19 -10 16 -23 9 -21 -10z"/>
<path d="M690 2716 c0 -2 7 -7 16 -10 8 -3 12 -2 9 4 -6 10 -25 14 -25 6z"/>
<path d="M695 2600 c3 -5 8 -10 11 -10 2 0 4 5 4 10 0 6 -5 10 -11 10 -5 0 -7
-4 -4 -10z"/>
<path d="M2190 2600 c-9 -6 -10 -10 -3 -10 6 0 15 5 18 10 8 12 4 12 -15 0z"/>
<path d="M2184 2562 c0 -10 6 -19 13 -19 8 0 9 6 2 19 -5 10 -11 18 -12 18 -2
0 -3 -8 -3 -18z"/>
<path d="M5250 2576 c0 -2 8 -10 18 -17 15 -13 16 -12 3 4 -13 16 -21 21 -21
13z"/>
<path d="M5213 2511 c-12 -19 0 -41 14 -27 4 3 0 6 -8 6 -12 0 -12 2 0 9 7 5
12 14 10 20 -2 6 -9 3 -16 -8z"/>
<path d="M5172 2443 c2 -6 -6 -18 -17 -26 -11 -9 -16 -19 -12 -24 5 -4 14 0
21 9 7 10 16 15 19 12 3 -3 4 1 3 10 -1 8 -6 19 -10 23 -4 4 -6 3 -4 -4z"/>
<path d="M5116 2361 c-10 -11 -13 -22 -8 -25 5 -3 15 1 22 9 7 8 9 15 4 15 -5
0 -2 5 6 10 8 5 10 10 4 10 -6 0 -19 -9 -28 -19z"/>
<path d="M5059 2291 c-31 -39 -36 -51 -21 -51 4 0 7 6 7 13 0 6 7 12 15 12 8
0 16 7 16 15 3 32 5 34 14 20 7 -12 9 -10 7 8 0 12 -2 22 -4 22 -1 0 -16 -18
-34 -39z"/>
<path d="M743 2305 c0 -8 4 -12 9 -9 5 3 6 10 3 15 -9 13 -12 11 -12 -6z"/>
<path d="M2189 2278 c-5 -9 -5 -48 -1 -43 6 6 11 45 5 45 -2 0 -4 -1 -4 -2z"/>
<path d="M4980 2195 c-7 -9 -8 -15 -2 -15 5 0 12 7 16 15 3 8 4 15 2 15 -2 0
-9 -7 -16 -15z"/>
<path d="M776 2147 c3 -10 9 -15 12 -12 3 3 0 11 -7 18 -10 9 -11 8 -5 -6z"/>
<path d="M4898 2113 c-8 -10 -8 -17 1 -26 10 -9 11 -8 5 7 -5 13 -4 17 3 13 6
-4 16 -1 22 6 8 10 7 14 -4 14 -9 0 -20 -7 -27 -14z"/>
<path d="M5737 1955 c-4 -8 -3 -16 1 -19 4 -3 9 4 9 15 2 23 -3 25 -10 4z"/>
<path d="M3556 1948 c3 -5 10 -6 15 -3 13 9 11 12 -6 12 -8 0 -12 -4 -9 -9z"/>
<path d="M4655 1920 c-3 -5 -1 -10 4 -10 6 0 11 5 11 10 0 6 -2 10 -4 10 -3 0
-8 -4 -11 -10z"/>
<path d="M3556 1788 c3 -5 10 -6 15 -3 13 9 11 12 -6 12 -8 0 -12 -4 -9 -9z"/>
<path d="M5427 1457 c-8 -13 -12 -29 -8 -35 4 -7 13 -1 24 18 21 34 6 50 -16
17z"/>
<path d="M3540 1405 c-7 -8 -9 -15 -6 -15 4 0 14 7 22 15 9 8 11 15 6 15 -5 0
-15 -7 -22 -15z"/>
<path d="M5310 1295 c-9 -10 -9 -15 -1 -15 6 0 11 5 11 11 0 5 5 7 12 3 7 -4
8 -3 4 4 -9 15 -11 15 -26 -3z"/>
<path d="M5252 1235 c4 -4 3 -14 -4 -22 -8 -11 -7 -12 6 -7 19 7 21 20 4 30
-7 4 -10 4 -6 -1z"/>
<path d="M5215 1190 c-3 -11 -10 -20 -15 -20 -5 0 -12 -9 -15 -20 -4 -12 -11
-17 -18 -13 -7 4 -6 -1 2 -10 14 -17 26 -24 17 -9 -7 11 23 54 33 48 4 -3 8 6
9 20 2 29 -4 31 -13 4z"/>
<path d="M5101 1074 c-12 -15 -21 -32 -21 -38 1 -6 7 0 14 13 7 13 15 19 17
12 3 -7 9 -3 16 8 19 31 -3 35 -26 5z"/>
<path d="M4990 959 c0 -5 5 -7 10 -4 6 3 10 8 10 11 0 2 -4 4 -10 4 -5 0 -10
-5 -10 -11z"/>
<path d="M4880 881 c0 -6 4 -13 10 -16 6 -3 7 1 4 9 -7 18 -14 21 -14 7z"/>
<path d="M4776 801 c-12 -14 -14 -19 -4 -17 19 2 38 16 38 27 0 15 -16 10 -34
-10z"/>
<path d="M4655 720 c-3 -5 -1 -10 4 -10 6 0 11 5 11 10 0 6 -2 10 -4 10 -3 0
-8 -4 -11 -10z"/>
<path d="M4535 649 c-4 -6 -4 -13 -1 -16 3 -4 6 -1 6 6 0 7 5 9 12 5 7 -4 8
-3 4 4 -9 15 -13 15 -21 1z"/>
<path d="M4430 590 c0 -5 5 -10 11 -10 5 0 7 5 4 10 -3 6 -8 10 -11 10 -2 0
-4 -4 -4 -10z"/>
<path d="M4355 560 c-3 -5 -1 -10 4 -10 6 0 11 5 11 10 0 6 -2 10 -4 10 -3 0
-8 -4 -11 -10z"/>
<path d="M3895 390 c-3 -5 -1 -10 4 -10 6 0 11 5 11 10 0 6 -2 10 -4 10 -3 0
-8 -4 -11 -10z"/>
<path d="M3636 328 c3 -5 10 -6 15 -3 13 9 11 12 -6 12 -8 0 -12 -4 -9 -9z"/>
<path d="M3186 278 c3 -5 10 -6 15 -3 13 9 11 12 -6 12 -8 0 -12 -4 -9 -9z"/>
</g>
</svg>
